<?xml version="1.0" standalone="no"?>
<!DOCTYPE svg PUBLIC "-//W3C//DTD SVG 20010904//EN"
 "http://www.w3.org/TR/2001/REC-SVG-20010904/DTD/svg10.dtd">
<svg version="1.0" xmlns="http://www.w3.org/2000/svg"
 width="20.000000pt" height="20.000000pt" viewBox="0 0 200.000000 200.000000"
 preserveAspectRatio="xMidYMid meet">

<g transform="translate(0.000000,200.000000) scale(0.100000,-0.100000)"
fill="#000000" stroke="none">
<path d="M825 1785 c-93 -20 -206 -67 -282 -118 -89 -59 -199 -175 -252 -265
-102 -176 -137 -392 -92 -585 69 -298 285 -525 578 -609 103 -30 313 -32 413
-4 289 80 508 298 586 586 30 112 21 390 -15 448 -5 8 -23 5 -61 -9 -30 -11
-56 -21 -57 -22 -1 -1 5 -27 14 -57 20 -76 20 -238 -1 -320 -66 -256 -251
-440 -516 -511 -68 -19 -243 -16 -320 5 -245 66 -432 252 -497 496 -28 103
-23 273 10 375 37 111 90 198 172 280 80 80 153 126 253 161 135 47 259 52
414 18 25 -6 27 -3 44 50 10 31 15 58 12 61 -3 3 -36 12 -74 20 -84 18 -248
18 -329 0z"/>
<path d="M1470 1660 l0 -80 -80 0 -80 0 0 -60 0 -59 78 -3 77 -3 3 -77 3 -78
59 0 60 0 0 80 0 80 80 0 80 0 0 60 0 60 -80 0 -80 0 0 80 0 80 -60 0 -60 0 0
-80z"/>
<path d="M720 1381 l0 -59 73 -4 c89 -5 140 -28 179 -82 l29 -41 -135 -3 -136
-3 0 -64 0 -65 136 0 136 0 -19 -31 c-10 -18 -35 -46 -56 -63 -35 -28 -46 -31
-123 -35 l-84 -3 0 -64 0 -64 38 0 c36 0 46 -9 212 -185 96 -102 177 -185 180
-185 3 0 24 19 47 43 l41 42 -148 155 -149 155 32 17 c52 26 123 110 143 167
l19 51 57 0 58 0 0 60 0 60 -60 0 c-43 0 -60 4 -60 13 0 8 -11 36 -25 63 -14
27 -25 52 -25 57 0 4 38 7 85 7 l85 0 0 60 0 60 -265 0 -265 0 0 -59z"/>
</g>
</svg>
