<?xml version="1.0" standalone="no"?>
<!DOCTYPE svg PUBLIC "-//W3C//DTD SVG 20010904//EN"
 "http://www.w3.org/TR/2001/REC-SVG-20010904/DTD/svg10.dtd">
<svg version="1.0" xmlns="http://www.w3.org/2000/svg"
 width="20.000000pt" height="20.000000pt" viewBox="0 0 200.000000 200.000000"
 preserveAspectRatio="xMidYMid meet">

<g transform="translate(0.000000,200.000000) scale(0.100000,-0.100000)"
fill="#000000" stroke="none">
<path d="M1592 1928 c-8 -8 -12 -47 -12 -110 l0 -98 -110 0 c-99 0 -110 -2
-120 -20 -8 -14 -8 -26 0 -40 10 -18 21 -20 120 -20 l109 0 3 -101 c3 -84 6
-104 21 -113 12 -8 22 -8 35 0 14 9 17 29 20 112 l3 101 111 3 c93 3 113 6
122 20 8 13 8 23 0 35 -9 15 -29 18 -123 21 l-111 3 0 97 c0 100 -7 122 -40
122 -9 0 -21 -5 -28 -12z"/>
<path d="M420 1707 c-49 -16 -133 -102 -148 -153 -17 -59 -17 -1049 0 -1108
16 -55 99 -138 154 -154 59 -17 1009 -17 1068 0 58 17 138 100 154 158 9 33
12 155 10 459 -3 381 -4 415 -20 425 -13 8 -23 8 -35 0 -17 -10 -18 -46 -23
-442 -5 -415 -6 -432 -26 -458 -11 -15 -33 -37 -48 -48 -27 -21 -38 -21 -546
-21 -508 0 -519 0 -546 21 -15 11 -37 33 -48 48 -21 27 -21 38 -21 566 0 528
0 539 21 566 11 15 33 37 48 48 26 20 43 21 428 26 368 5 402 6 412 23 8 12 8
22 0 35 -10 16 -42 17 -405 19 -265 1 -405 -3 -429 -10z"/>
<path d="M672 1298 c-7 -7 -12 -19 -12 -28 0 -34 22 -40 142 -40 86 0 127 -4
148 -15 27 -14 60 -51 60 -67 0 -4 -75 -9 -166 -10 -146 -3 -168 -5 -178 -20
-8 -13 -8 -23 0 -35 10 -16 33 -19 180 -23 l168 -5 -31 -35 -31 -35 -136 -3
c-145 -4 -165 -11 -151 -54 7 -25 327 -331 351 -336 20 -5 44 16 44 38 0 10
-59 74 -132 144 l-132 126 70 0 c45 0 83 7 109 19 45 20 102 79 111 116 5 21
12 24 61 27 100 5 103 69 4 78 -50 5 -53 7 -71 47 l-19 42 71 3 c55 2 73 7 82
21 8 12 8 22 0 35 -10 15 -36 17 -270 20 -194 2 -263 -1 -272 -10z"/>
</g>
</svg>
