<?xml version="1.0" standalone="no"?>
<!DOCTYPE svg PUBLIC "-//W3C//DTD SVG 20010904//EN"
 "http://www.w3.org/TR/2001/REC-SVG-20010904/DTD/svg10.dtd">
<svg version="1.0" xmlns="http://www.w3.org/2000/svg"
 width="24" height="24" viewBox="0 0 256.000000 256.000000"
 preserveAspectRatio="xMidYMid meet">

<g transform="translate(0.000000,256.000000) scale(0.100000,-0.100000)"
fill="#000000" stroke="none">
<path d="M228 2529 c-15 -8 -18 -25 -18 -104 l0 -95 -93 0 c-59 0 -97 -4 -105
-12 -16 -16 -16 -170 0 -186 8 -8 46 -12 105 -12 l93 0 0 -98 c0 -63 4 -102
12 -110 7 -7 44 -12 98 -12 54 0 91 5 98 12 8 8 12 47 12 110 l0 97 98 3 97 3
0 100 0 100 -97 3 -98 3 0 94 c0 83 -2 96 -19 105 -25 13 -161 13 -183 -1z"/>
<path d="M1085 2525 c-130 -21 -326 -82 -340 -106 -3 -4 2 -20 12 -35 10 -17
19 -55 23 -100 l5 -73 68 30 c553 244 1222 -38 1428 -602 48 -132 62 -210 62
-359 0 -149 -14 -227 -62 -359 -157 -430 -590 -712 -1055 -688 -428 22 -803
295 -947 687 -49 135 -62 210 -61 365 0 155 22 265 80 404 l30 71 -62 0 c-42
0 -74 6 -101 20 -22 11 -42 20 -46 20 -10 0 -54 -119 -78 -210 -115 -430 25
-911 355 -1219 177 -166 387 -274 635 -327 118 -26 380 -26 498 0 521 112 899
487 1008 999 24 113 24 361 0 474 -95 447 -414 811 -838 953 -182 62 -434 84
-614 55z"/>
<path d="M1259 1707 c-103 -39 -139 -99 -139 -234 0 -80 3 -97 30 -149 23 -46
30 -72 30 -119 l0 -60 -87 -21 c-49 -12 -128 -39 -178 -60 l-90 -39 -3 -83 -3
-82 501 0 501 0 -3 82 -3 82 -99 42 c-54 23 -134 50 -177 60 l-79 18 0 62 c0
49 6 72 28 110 25 45 27 57 27 160 0 105 -2 113 -28 151 -50 72 -152 108 -228
80z"/>
<path d="M693 1616 c-70 -32 -94 -134 -53 -225 11 -24 20 -58 20 -75 0 -31 -3
-33 -52 -45 -28 -6 -78 -23 -110 -38 -58 -26 -58 -26 -58 -69 l0 -44 134 0
c130 0 135 1 207 34 41 19 106 44 144 57 l70 23 -82 25 c-77 25 -81 28 -87 59
-3 23 1 43 14 65 15 23 20 50 20 100 0 62 -2 70 -32 102 -39 42 -87 53 -135
31z"/>
<path d="M1780 1612 c-67 -33 -91 -137 -50 -217 11 -22 20 -56 20 -76 0 -35
-1 -36 -52 -48 -29 -7 -66 -18 -82 -25 l-30 -12 80 -28 c43 -16 105 -41 136
-57 55 -28 64 -29 193 -29 l135 0 0 46 c0 45 0 45 -52 68 -29 13 -77 29 -105
36 l-53 14 0 40 c1 23 7 52 15 66 21 36 19 145 -2 181 -18 30 -67 59 -100 59
-10 0 -34 -8 -53 -18z"/>
</g>
</svg>
