<?xml version="1.0" encoding="utf-8"?>
<svg viewBox="-13.48 6.74 499.387 442.402" width="150px" height="150px" xmlns="http://www.w3.org/2000/svg">
  <text style="white-space: pre; fill: rgb(51, 51, 51); font-family: Arial, sans-serif; font-size: 17.2px;" x="374.387" y="150.054"> </text>
  <text style="white-space: pre; fill: rgb(51, 51, 51); font-family: Arial, sans-serif; font-size: 17.2px;" x="665.441" y="132.898"> </text>
  <text style="white-space: pre; fill: rgb(51, 51, 51); font-family: Arial, sans-serif; font-size: 17.2px;" x="591.912" y="238.29"> </text>
  <path id="Union_30" data-name="Union 30" d="M 122.258 387.357 L 122.258 197.703 C 122.258 184.615 132.875 173.997 145.964 173.997 L 335.622 173.997 C 353.875 173.997 365.272 193.758 356.146 209.558 C 351.911 216.89 344.088 221.409 335.622 221.409 L 169.67 221.409 L 169.67 387.357 C 169.67 405.611 149.909 417.011 134.108 407.882 C 126.777 403.647 122.258 395.824 122.258 387.357 Z" style="" transform="matrix(-0.707107, -0.707107, 0.707107, -0.707107, 204.224353, 669.68617)"/>
  <path id="path-1" data-name="Union 30" d="M 121.627 275.961 L 121.627 86.275 C 121.627 73.184 132.246 62.565 145.337 62.565 L 335.024 62.565 C 353.28 62.565 364.679 82.329 355.551 98.132 C 351.316 105.465 343.491 109.986 335.024 109.986 L 169.047 109.986 L 169.047 275.961 C 169.047 294.219 149.283 305.619 133.48 296.49 C 126.147 292.253 121.627 284.43 121.627 275.961 Z" style="" transform="matrix(0.707107, 0.707107, -0.707107, 0.707107, 198.433464, -116.791144)"/>
</svg>