<svg xmlns="http://www.w3.org/2000/svg" width="23.697" height="23.426" viewBox="0 0 23.697 23.426">
  <path id="calendar" d="M-1524.42,24061.426a.654.654,0,0,1-.58-.641v-19.625a.7.7,0,0,1,.2-.592.7.7,0,0,1,.592-.2l3.158,0v-1.842a.528.528,0,0,1,.153-.371.53.53,0,0,1,.372-.154h1.051a.529.529,0,0,1,.531.525v1.842h11.576v-1.842a.522.522,0,0,1,.156-.373.52.52,0,0,1,.375-.152h1.051a.53.53,0,0,1,.372.154.529.529,0,0,1,.153.373v1.84h3.424a.508.508,0,0,1,.379.146.5.5,0,0,1,.146.379v19.922a.567.567,0,0,1-.513.611Zm.737-1.316h21.057v-16.582h-2.633v.266a.524.524,0,0,1-.525.523l-1.051,0a.528.528,0,0,1-.375-.152.53.53,0,0,1-.156-.375v-.264h-11.576v.266a.532.532,0,0,1-.531.527l-1.051,0a.527.527,0,0,1-.525-.527v-.264h-2.633ZM-1508,24057v-3h3v3Zm-5,0v-3h4v3Zm-4,0v-3h3v3Zm-4,0v-3h3v3Zm13-4v-3h3v3Zm-5,0v-3h4v3Zm-4,0v-3h3v3Zm-4,0v-3h3v3Zm13-4v-3h3v3Zm-5,0v-3h4v3Zm-4,0v-3h3v3Z" transform="translate(1525.007 -24038.002)"/>
</svg>
