<svg xmlns="http://www.w3.org/2000/svg" width="19.863" height="24" viewBox="0 0 19.863 24">
  <path id="delete" d="M17394.965,17744a2.484,2.484,0,0,1-2.484-2.482v-13.242h-1.652a.829.829,0,0,1-.83-.826v-1.654a2.481,2.481,0,0,1,2.482-2.484h3.311v-.828a2.484,2.484,0,0,1,2.482-2.482h3.311a2.484,2.484,0,0,1,2.484,2.482v.828h3.311a2.484,2.484,0,0,1,2.482,2.484v1.654a.829.829,0,0,1-.83.826h-1.652v13.242a2.484,2.484,0,0,1-2.484,2.482Zm-.828-2.482a.824.824,0,0,0,.828.826h9.93a.824.824,0,0,0,.828-.826v-13.242h-11.586Zm-2.24-16.309a.829.829,0,0,0-.242.586v.826h16.551v-.826a.827.827,0,0,0-.826-.828h-14.9A.82.82,0,0,0,17391.9,17725.207Zm5.551-2.727v.828h4.965v-.828a.827.827,0,0,0-.828-.826h-3.311A.826.826,0,0,0,17397.447,17722.48Zm4.137,16.551v-7.445a.827.827,0,1,1,1.654,0v7.445a.827.827,0,1,1-1.654,0Zm-4.967,0v-7.445a.828.828,0,1,1,1.656,0v7.445a.828.828,0,1,1-1.656,0Z" transform="translate(-17389.998 -17719.998)"/>
</svg>
