<svg xmlns="http://www.w3.org/2000/svg" width="24" height="23.998" viewBox="0 0 24 23.998">
  <path id="edit" d="M21.244.937a3.305,3.305,0,0,0-4.67,0L15.4,2.112,2.961,14.549l-.026.027c-.006.006-.006.013-.013.013-.013.02-.033.039-.046.059s-.007.007-.007.013-.02.033-.033.053-.006.013-.013.02-.013.033-.02.053-.006.006-.006.013L.035,23.1a.65.65,0,0,0,.158.674.665.665,0,0,0,.469.192.779.779,0,0,0,.211-.033l8.3-2.768c.006,0,.006,0,.013-.006a.239.239,0,0,0,.059-.027.023.023,0,0,0,.013-.006c.02-.013.046-.027.066-.04s.04-.033.06-.046.013-.007.013-.013.02-.013.027-.026L23.034,7.39a3.3,3.3,0,0,0,0-4.67ZM8.958,19.616l-4.6-4.6L15.867,3.513l4.6,4.6ZM3.714,16.241,7.73,20.256,1.7,22.264ZM22.1,6.465l-.7.707-4.6-4.6.707-.707a1.981,1.981,0,0,1,2.8,0l1.8,1.8A1.988,1.988,0,0,1,22.1,6.465Zm0,0" transform="translate(0 0.029)"/>
</svg>
