<svg xmlns="http://www.w3.org/2000/svg" width="24" height="23.987" viewBox="0 0 24 23.987">
  <path id="help_icon" d="M20.479,3.508A11.962,11.962,0,1,0,24,11.989a11.994,11.994,0,0,0-3.526-8.481ZM11.814,19.464a1.833,1.833,0,1,1,1.833-1.835,1.833,1.833,0,0,1-1.833,1.835Zm4.893-9.115A7.766,7.766,0,0,1,14.9,12.162a5.081,5.081,0,0,0-1.269,1.286,2.579,2.579,0,0,0-.273,1.13H10.032v-.209a4.356,4.356,0,0,1,.2-1.458,3.159,3.159,0,0,1,.6-1.01,19.288,19.288,0,0,1,1.861-1.679,1.808,1.808,0,0,0,.84-1.293,1.235,1.235,0,0,0-.365-.943,1.5,1.5,0,0,0-1.06-.338,1.679,1.679,0,0,0-1.25.5,2.6,2.6,0,0,0-.6,1.509l-3.4-.42A4.877,4.877,0,0,1,8.3,6.192a5.44,5.44,0,0,1,3.879-1.2,5.789,5.789,0,0,1,3.293.847,3.455,3.455,0,0,1,1.679,3.018,2.878,2.878,0,0,1-.439,1.482Z" transform="translate(-0.004 0.005)" fill="#6e6f6e"/>
</svg>
