<svg xmlns="http://www.w3.org/2000/svg" width="28.343" height="22"  viewBox="0 0 40.867 28.902">
  <path id="hide_password" d="M29.38,15.449a17.1,17.1,0,0,0-14.341,1.7L4.273,23.823a1.5,1.5,0,0,0,.01,2.548l8.807,5.368L8.93,35.9a1.495,1.495,0,1,0,2.114,2.114L36.956,12.1a1.5,1.5,0,1,0-2.115-2.114Zm5.55,2.908-5.587,5.588a5.487,5.487,0,0,1-6.578,6.577l-4.113,4.113a17.1,17.1,0,0,0,14.34-1.606l10.725-6.556a1.495,1.495,0,0,0,.02-2.539Zm-9.895,1.437a5.486,5.486,0,0,0-6.419,6.419Z" transform="translate(-3.566 -9.549)" fill="#6e6f6e"/>
</svg>
