<svg xmlns="http://www.w3.org/2000/svg" width="24" height="24" viewBox="0 0 24 24">
  <path id="switch_to_tile_view" data-name="switch to tile_view" d="M16.032,24a2.915,2.915,0,0,1-2.915-2.915V16.032a2.915,2.915,0,0,1,2.915-2.915h5.053A2.915,2.915,0,0,1,24,16.032v5.053A2.915,2.915,0,0,1,21.085,24Zm-.972-7.968v5.053a.973.973,0,0,0,.972.972h5.053a.973.973,0,0,0,.972-.972V16.032a.973.973,0,0,0-.972-.972H16.032A.973.973,0,0,0,15.061,16.032ZM2.915,24A2.915,2.915,0,0,1,0,21.085V16.032a2.915,2.915,0,0,1,2.915-2.915H7.968a2.915,2.915,0,0,1,2.915,2.915v5.053A2.915,2.915,0,0,1,7.968,24Zm-.972-7.968v5.053a.973.973,0,0,0,.972.972H7.968a.973.973,0,0,0,.972-.972V16.032a.973.973,0,0,0-.972-.972H2.915A.973.973,0,0,0,1.943,16.032Zm14.089-5.15a2.915,2.915,0,0,1-2.915-2.915V2.915A2.915,2.915,0,0,1,16.032,0h5.053A2.915,2.915,0,0,1,24,2.915V7.968a2.915,2.915,0,0,1-2.915,2.915Zm-.972-7.968V7.968a.973.973,0,0,0,.972.972h5.053a.973.973,0,0,0,.972-.972V2.915a.973.973,0,0,0-.972-.972H16.032A.973.973,0,0,0,15.061,2.915ZM2.915,10.883A2.915,2.915,0,0,1,0,7.968V2.915A2.915,2.915,0,0,1,2.915,0H7.968a2.915,2.915,0,0,1,2.915,2.915V7.968a2.915,2.915,0,0,1-2.915,2.915ZM1.943,2.915V7.968a.973.973,0,0,0,.972.972H7.968a.973.973,0,0,0,.972-.972V2.915a.973.973,0,0,0-.972-.972H2.915A.973.973,0,0,0,1.943,2.915Z" fill="#6e6f6e"/>
</svg>
